<?xml version="1.0" encoding="UTF-8" standalone="no"?>
<!-- Created with Inkscape (http://www.inkscape.org/) -->

<svg
   width="210mm"
   height="297mm"
   viewBox="0 0 210 297"
   version="1.1"
   id="svg5"
   sodipodi:docname="mohammadard.svg"
   inkscape:version="1.1 (c4e8f9e, 2021-05-24)"
   xmlns:inkscape="http://www.inkscape.org/namespaces/inkscape"
   xmlns:sodipodi="http://sodipodi.sourceforge.net/DTD/sodipodi-0.dtd"
   xmlns="http://www.w3.org/2000/svg"
   xmlns:svg="http://www.w3.org/2000/svg">
  <sodipodi:namedview
     id="namedview7"
     pagecolor="#ffffff"
     bordercolor="#999999"
     borderopacity="1"
     inkscape:pageshadow="0"
     inkscape:pageopacity="0"
     inkscape:pagecheckerboard="0"
     inkscape:document-units="mm"
     showgrid="false"
     inkscape:zoom="0.51556444"
     inkscape:cx="410.23"
     inkscape:cy="192.99237"
     inkscape:window-width="1312"
     inkscape:window-height="785"
     inkscape:window-x="0"
     inkscape:window-y="25"
     inkscape:window-maximized="0"
     inkscape:current-layer="layer1"
     showguides="true"
     inkscape:guide-bbox="true">
    <sodipodi:guide
       position="17.46971,246.03574"
       orientation="0,-1"
       id="guide4346" />
    <sodipodi:guide
       position="25.21943,204.15335"
       orientation="0,-1"
       id="guide4505" />
  </sodipodi:namedview>
  <defs
     id="defs2" />
  <g
     inkscape:label="Layer 1"
     inkscape:groupmode="layer"
     id="layer1">
    <g
       id="panel7197">
      <path
         style="fill:none;stroke:#000000;stroke-width:1"
         d="M 36.2 109.4 L 42.9857 109.4 L 42.9857 106.4 L 49.1857 106.4 L 49.1857 109.4 L 55.8714 109.4 L 55.8714 106.4 L 62.0714 106.4 L 62.0714 109.4 L 68.7571 109.4 L 68.7571 106.4 L 74.9571 106.4 L 74.9571 109.4 L 81.6429 109.4 L 81.6429 106.4 L 87.8429 106.4 L 87.8429 109.4 L 94.5286 109.4 L 94.5286 106.4 L 100.729 106.4 L 100.729 109.4 L 107.414 109.4 L 107.414 106.4 L 113.614 106.4 L 113.614 109.4 L 120.4 109.4"
         id="path2486" />
      <path
         style="fill:none;stroke:#000000;stroke-width:1"
         d="M 120.4 109.4 L 120.4 116.6 L 117.4 116.6 L 117.4 122.4 L 120.4 122.4 L 120.4 129.6"
         id="path2492" />
      <path
         style="fill:none;stroke:#000000;stroke-width:1"
         d="M 120.4,129.6 H 36.2"
         id="path2494"
         sodipodi:nodetypes="cc" />
      <path
         style="fill:none;stroke:#000000;stroke-width:1"
         d="M 36.2 129.6 L 36.2 122.4 L 39.2 122.4 L 39.2 116.6 L 36.2 116.6 L 36.2 109.4"
         id="path2496" />
    </g>
    <g
       id="panel3941">
      <path
         style="fill:none;stroke:#000000;stroke-width:1"
         d="M 8 39.2 L 15 39.2 L 15 36.2 L 21.2 36.2 L 21.2 39.2 L 28.2 39.2"
         id="path2499" />
      <path
         style="fill:none;stroke:#000000;stroke-width:1"
         d="M 28.2 39.2 L 28.2 44.34 L 31.2 44.34 L 31.2 50.54 L 28.2 50.54 L 28.2 58.58 L 31.2 58.58 L 31.2 64.78 L 28.2 64.78 L 28.2 72.82 L 31.2 72.82 L 31.2 79.02 L 28.2 79.02 L 28.2 87.06 L 31.2 87.06 L 31.2 93.26 L 28.2 93.26 L 28.2 98.4"
         id="path2501" />
      <path
         style="fill:none;stroke:#000000;stroke-width:1"
         d="M 28.2 98.4 L 21.2 98.4 L 21.2 101.4 L 15 101.4 L 15 98.4 L 8 98.4"
         id="path2503" />
      <path
         style="fill:none;stroke:#000000;stroke-width:1"
         d="M 8,98.4 V 93.26 H 5 v -6.2 H 8 V 79.02 H 5 V 58.58 H 8 V 50.54 H 5 v -6.2 H 8 V 39.2"
         id="path2505"
         sodipodi:nodetypes="cccccccccccccc" />
    </g>
    <g
       id="panel4571">
      <path
         style="fill:none;stroke:#000000;stroke-width:1"
         d="M 36.2 36.2 L 43.1857 36.2 L 43.1857 39.2 L 48.9857 39.2 L 48.9857 36.2 L 56.0714 36.2 L 56.0714 39.2 L 61.8714 39.2 L 61.8714 36.2 L 68.9571 36.2 L 68.9571 39.2 L 74.7571 39.2 L 74.7571 36.2 L 81.8429 36.2 L 81.8429 39.2 L 87.6429 39.2 L 87.6429 36.2 L 94.7286 36.2 L 94.7286 39.2 L 100.529 39.2 L 100.529 36.2 L 107.614 36.2 L 107.614 39.2 L 113.414 39.2 L 113.414 36.2 L 120.4 36.2"
         id="path2526" />
      <path
         style="fill:none;stroke:#000000;stroke-width:1"
         d="M 120.4 36.2 L 120.4 44.54 L 117.4 44.54 L 117.4 50.34 L 120.4 50.34 L 120.4 58.78 L 117.4 58.78 L 117.4 64.58 L 120.4 64.58 L 120.4 73.02 L 117.4 73.02 L 117.4 78.82 L 120.4 78.82 L 120.4 87.26 L 117.4 87.26 L 117.4 93.06 L 120.4 93.06 L 120.4 101.4"
         id="path2528" />
      <path
         style="fill:none;stroke:#000000;stroke-width:1"
         d="M 120.4 101.4 L 113.414 101.4 L 113.414 98.4 L 107.614 98.4 L 107.614 101.4 L 100.529 101.4 L 100.529 98.4 L 94.7286 98.4 L 94.7286 101.4 L 87.6429 101.4 L 87.6429 98.4 L 81.8429 98.4 L 81.8429 101.4 L 74.7571 101.4 L 74.7571 98.4 L 68.9571 98.4 L 68.9571 101.4 L 61.8714 101.4 L 61.8714 98.4 L 56.0714 98.4 L 56.0714 101.4 L 48.9857 101.4 L 48.9857 98.4 L 43.1857 98.4 L 43.1857 101.4 L 36.2 101.4"
         id="path2530" />
      <path
         style="fill:none;stroke:#000000;stroke-width:1"
         d="M 36.2 101.4 L 36.2 93.06 L 39.2 93.06 L 39.2 87.26 L 36.2 87.26 L 36.2 78.82 L 39.2 78.82 L 39.2 73.02 L 36.2 73.02 L 36.2 64.58 L 39.2 64.58 L 39.2 58.78 L 36.2 58.78 L 36.2 50.34 L 39.2 50.34 L 39.2 44.54 L 36.2 44.54 L 36.2 36.2"
         id="path2532" />
    </g>
    <g
       id="panel6193">
      <path
         style="fill:none;stroke:#000000;stroke-width:1"
         d="M 128.4 39.2 L 135.4 39.2 L 135.4 36.2 L 141.6 36.2 L 141.6 39.2 L 148.6 39.2"
         id="path2535" />
      <path
         style="fill:none;stroke:#000000;stroke-width:1"
         d="m 148.6,39.2 v 5.14 h 3 v 6.2 h -3 v 8.04 h 3 v 20.44 h -3 v 8.04 h 3 v 6.2 h -3 v 5.14"
         id="path2537"
         sodipodi:nodetypes="cccccccccccccc" />
      <path
         style="fill:none;stroke:#000000;stroke-width:1"
         d="M 148.6 98.4 L 141.6 98.4 L 141.6 101.4 L 135.4 101.4 L 135.4 98.4 L 128.4 98.4"
         id="path2539" />
      <path
         style="fill:none;stroke:#000000;stroke-width:1"
         d="M 128.4 98.4 L 128.4 93.26 L 125.4 93.26 L 125.4 87.06 L 128.4 87.06 L 128.4 79.02 L 125.4 79.02 L 125.4 72.82 L 128.4 72.82 L 128.4 64.78 L 125.4 64.78 L 125.4 58.58 L 128.4 58.58 L 128.4 50.54 L 125.4 50.54 L 125.4 44.34 L 128.4 44.34 L 128.4 39.2"
         id="path2541" />
    </g>
    <g
       id="panel3666">
      <path
         style="fill:none;stroke:#000000;stroke-width:1"
         d="m 156.6,36.2 h 84.2"
         id="path2544"
         sodipodi:nodetypes="cc" />
      <path
         style="fill:none;stroke:#000000;stroke-width:1"
         d="m 240.8,36.2 2.64583,8.34 H 237.8 l 0,5.8 h 5.64583 v 8.44 H 237.8 v 20.04 h 5.64583 v 8.44 H 237.8 v 5.8 h 5.64583 L 240.8,101.4"
         id="path2546"
         sodipodi:nodetypes="cccccccccccccc" />
      <path
         style="fill:none;stroke:#000000;stroke-width:1"
         d="M 240.8,101.4 H 156.6"
         id="path2548"
         sodipodi:nodetypes="cc" />
      <path
         style="fill:none;stroke:#000000;stroke-width:1"
         d="m 156.6,101.4 -2.64583,-8.34 H 159.6 v -5.8 h -5.64583 V 78.82 H 159.6 V 58.78 h -5.64583 V 50.34 H 159.6 v -5.8 h -5.64583 L 156.6,36.2"
         id="path2550"
         sodipodi:nodetypes="cccccccccccccc" />
    </g>
    <g
       id="panel9938">
      <path
         style="fill:none;stroke:#000000;stroke-width:1"
         d="m 36.2,8 h 84.2"
         id="path2553"
         sodipodi:nodetypes="cc" />
      <path
         style="fill:none;stroke:#000000;stroke-width:1"
         d="M 120.4 8 L 120.4 15.2 L 117.4 15.2 L 117.4 21 L 120.4 21 L 120.4 28.2"
         id="path2559" />
      <path
         style="fill:none;stroke:#000000;stroke-width:1"
         d="M 120.4 28.2 L 113.614 28.2 L 113.614 31.2 L 107.414 31.2 L 107.414 28.2 L 100.729 28.2 L 100.729 31.2 L 94.5286 31.2 L 94.5286 28.2 L 87.8429 28.2 L 87.8429 31.2 L 81.6429 31.2 L 81.6429 28.2 L 74.9571 28.2 L 74.9571 31.2 L 68.7571 31.2 L 68.7571 28.2 L 62.0714 28.2 L 62.0714 31.2 L 55.8714 31.2 L 55.8714 28.2 L 49.1857 28.2 L 49.1857 31.2 L 42.9857 31.2 L 42.9857 28.2 L 36.2 28.2"
         id="path2561" />
      <path
         style="fill:none;stroke:#000000;stroke-width:1"
         d="M 36.2 28.2 L 36.2 21 L 39.2 21 L 39.2 15.2 L 36.2 15.2 L 36.2 8"
         id="path2563" />
    </g>
    <rect
       style="opacity:0.337621;fill:none;fill-opacity:0.983871;stroke-width:0.264583;paint-order:stroke fill markers"
       id="rect3677"
       width="65.352081"
       height="11.1125"
       x="166.42291"
       y="40.481251"
       ry="3.8364582" />
    <rect
       style="opacity:1;fill:none;fill-opacity:0.983871;stroke:#000000;stroke-width:0.264583;stroke-opacity:1;paint-order:stroke fill markers"
       id="rect3758"
       width="65.352081"
       height="11.112499"
       x="166.42291"
       y="42.068752"
       ry="7.1054274e-15" />
    <rect
       style="fill:none;fill-opacity:0.983871;stroke:#000000;stroke-width:0.264583;stroke-opacity:1;paint-order:stroke fill markers"
       id="rect3758-4"
       width="65.352081"
       height="11.112499"
       x="166.45282"
       y="84.456482"
       ry="7.1054274e-15" />
    <rect
       style="opacity:1;fill:none;fill-opacity:0.983871;stroke:#000000;stroke-width:0.264583;stroke-opacity:1;paint-order:stroke fill markers"
       id="rect4139"
       width="11.735417"
       height="13.735416"
       x="11.56284"
       y="50.96426"
       ry="1.2042092e-14" />
    <rect
       style="fill:none;fill-opacity:0.983871;stroke:#000000;stroke-width:0.264583;stroke-opacity:1;paint-order:stroke fill markers"
       id="rect4139-7"
       width="12.735417"
       height="10.735417"
       x="10.645975"
       y="82.111229"
       ry="9.411937e-15" />
    <text
       xml:space="preserve"
       style="font-style:normal;font-weight:normal;font-size:10.5833px;line-height:1.25;font-family:sans-serif;fill:#000000;fill-opacity:1;stroke:none;stroke-width:0.264583"
       x="179.10385"
       y="68.767677"
       id="text1818"><tspan
         sodipodi:role="line"
         id="tspan1816"
         style="stroke-width:0.264583"
         x="179.10385"
         y="68.767677" /></text>
    <text
       xml:space="preserve"
       style="font-style:normal;font-variant:normal;font-weight:bold;font-stretch:condensed;font-size:10.5833px;line-height:1.25;font-family:'American Typewriter';-inkscape-font-specification:'American Typewriter, Bold Condensed';font-variant-ligatures:normal;font-variant-caps:normal;font-variant-numeric:normal;font-variant-east-asian:normal;fill:#000000;fill-opacity:1;stroke:none;stroke-width:0.264583"
       x="175.95259"
       y="70.863266"
       id="text6932-4"><tspan
         sodipodi:role="line"
         style="font-style:normal;font-variant:normal;font-weight:bold;font-stretch:condensed;font-size:10.5833px;font-family:'American Typewriter';-inkscape-font-specification:'American Typewriter, Bold Condensed';font-variant-ligatures:normal;font-variant-caps:normal;font-variant-numeric:normal;font-variant-east-asian:normal;fill:#000000;fill-opacity:1;stroke-width:0.264583"
         x="175.95259"
         y="70.863266"
         id="tspan7002-0">Moudi Alhaj</tspan></text>
  </g>
</svg>
